<svg width="28" height="28" viewBox="0 0 28 28" fill="none" xmlns="http://www.w3.org/2000/svg">
<g clip-path="url(#clip0_4004_243)">
<path d="M27.9101 0.811993C27.8968 0.6255 27.8204 0.450757 27.696 0.315533C27.4662 0.0205197 27.0554 -0.0875736 26.7027 0.0771298L26.6862 0.0848202C26.6743 0.0903744 26.6623 0.0963559 26.6506 0.102551L6.24934 10.1027C5.99022 10.2296 5.81697 10.4834 5.79283 10.7709C5.7689 11.0584 5.89772 11.3374 6.13206 11.5058L11.8008 15.5733L0.414011 26.5901C0.118998 26.8755 0.0803321 27.3352 0.323649 27.6657C0.483012 27.8825 0.731242 28 0.984812 28C1.11833 28 1.25334 27.9673 1.37745 27.8996L22.8878 16.1553C23.1354 16.0202 23.296 15.7673 23.3133 15.4858C23.3306 15.204 23.202 14.9333 22.9728 14.7688L17.7203 10.9999L27.6597 1.46226C27.8357 1.2935 27.9274 1.0551 27.9101 0.811993ZM15.8724 10.4992C15.6966 10.6679 15.6048 10.9061 15.6221 11.1492C15.6396 11.3925 15.7641 11.6153 15.9621 11.7574L20.956 15.3409L5.90925 23.556L13.6475 16.0692C13.8223 15.9 13.9131 15.6622 13.8953 15.4195C13.8774 15.1771 13.7531 14.9549 13.5555 14.8133L8.20271 10.9721L22.8737 3.78093L15.8724 10.4992Z" fill="#E7E6EB"/>
</g>
<defs>
<clipPath id="clip0_4004_243">
<rect width="28" height="28" fill="white"/>
</clipPath>
</defs>
</svg>
