<svg width="28" height="28" viewBox="0 0 28 28" fill="none" xmlns="http://www.w3.org/2000/svg">
<g clip-path="url(#clip0_4003_2869)">
<mask id="path-1-inside-1_4003_2869" fill="white">
<path d="M14.0001 0.000244141C6.2802 0.000244141 0 6.28083 0 14.0007C0.000649788 21.7198 6.28111 28 14.0001 28C21.7197 28 28.0001 21.7199 28.0001 14.0006C28 6.28083 21.7197 0.000244141 14.0001 0.000244141ZM14.0001 1.94961C16.8619 1.94961 19.4932 2.95301 21.5626 4.62569L4.62558 21.5625C2.95315 19.4934 1.94962 16.8621 1.94936 14.0006C1.94936 7.35571 7.35534 1.94961 14.0001 1.94961ZM14.0001 26.0506C10.9177 26.0506 8.10246 24.8867 5.96908 22.9761L22.976 5.96919C24.8867 8.10258 26.0506 10.9181 26.0506 14.0007C26.0506 20.645 20.6447 26.0506 14.0001 26.0506Z"/>
</mask>
<path d="M0 14.0007H-2V14.0009L0 14.0007ZM28.0001 14.0006H30.0001V14.0005L28.0001 14.0006ZM21.5626 4.62569L22.9768 6.03991L24.5488 4.46788L22.8198 3.07029L21.5626 4.62569ZM4.62558 21.5625L3.07012 22.8197L4.46768 24.5488L6.03979 22.9768L4.62558 21.5625ZM1.94936 14.0006H-0.0506371L-0.0506371 14.0008L1.94936 14.0006ZM5.96908 22.9761L4.55487 21.5619L3.06061 23.0561L4.63478 24.4659L5.96908 22.9761ZM22.976 5.96919L24.4658 4.63485L23.056 3.06078L21.5618 4.55498L22.976 5.96919ZM26.0506 14.0007H24.0506H26.0506ZM14.0001 0.000244141V-1.99976C5.17555 -1.99976 -2 5.17633 -2 14.0007H0H2C2 7.38533 7.38484 2.00024 14.0001 2.00024V0.000244141ZM0 14.0007L-2 14.0009C-1.99926 22.8244 5.17654 30 14.0001 30V28V26C7.38567 26 2.00056 20.6152 2 14.0005L0 14.0007ZM14.0001 28V30C22.8241 30 30.0001 22.8246 30.0001 14.0006H28.0001H26.0001C26.0001 20.6152 20.6152 26 14.0001 26V28ZM28.0001 14.0006L30.0001 14.0005C30 5.17632 22.8243 -1.99976 14.0001 -1.99976V0.000244141V2.00024C20.615 2.00024 26 7.38534 26.0001 14.0006L28.0001 14.0006ZM14.0001 1.94961V3.94961C16.386 3.94961 18.5774 4.78442 20.3053 6.18109L21.5626 4.62569L22.8198 3.07029C20.409 1.1216 17.3377 -0.050393 14.0001 -0.050393V1.94961ZM21.5626 4.62569L20.1483 3.21147L3.21137 20.1483L4.62558 21.5625L6.03979 22.9768L22.9768 6.03991L21.5626 4.62569ZM4.62558 21.5625L6.18103 20.3053C4.78451 18.5775 3.94958 16.3861 3.94936 14.0004L1.94936 14.0006L-0.0506371 14.0008C-0.050334 17.3381 1.1218 20.4092 3.07012 22.8197L4.62558 21.5625ZM1.94936 14.0006H3.94936C3.94936 8.46024 8.45995 3.94961 14.0001 3.94961V1.94961V-0.050393C6.25072 -0.050393 -0.0506371 6.25118 -0.0506371 14.0006H1.94936ZM14.0001 26.0506V24.0506C11.4309 24.0506 9.08572 23.0825 7.30337 21.4862L5.96908 22.9761L4.63478 24.4659C7.11921 26.691 10.4046 28.0506 14.0001 28.0506V26.0506ZM5.96908 22.9761L7.38329 24.3903L24.3902 7.38341L22.976 5.96919L21.5618 4.55498L4.55487 21.5619L5.96908 22.9761ZM22.976 5.96919L21.4862 7.30354C23.0825 9.08581 24.0506 11.4312 24.0506 14.0007H26.0506H28.0506C28.0506 10.405 26.691 7.11934 24.4658 4.63485L22.976 5.96919ZM26.0506 14.0007H24.0506C24.0506 19.5404 19.5402 24.0506 14.0001 24.0506V26.0506V28.0506C21.7491 28.0506 28.0506 21.7497 28.0506 14.0007H26.0506Z" fill="#E7E6EB" mask="url(#path-1-inside-1_4003_2869)"/>
</g>
<defs>
<clipPath id="clip0_4003_2869">
<rect width="28" height="28" fill="white"/>
</clipPath>
</defs>
</svg>
